%TF.GenerationSoftware,KiCad,Pcbnew,(5.1.10)-1*%
%TF.CreationDate,2021-06-04T17:55:21+02:00*%
%TF.ProjectId,JMY_USB-MIDI Converter,4a4d595f-5553-4422-9d4d-49444920436f,rev?*%
%TF.SameCoordinates,Original*%
%TF.FileFunction,Legend,Top*%
%TF.FilePolarity,Positive*%
%FSLAX46Y46*%
G04 Gerber Fmt 4.6, Leading zero omitted, Abs format (unit mm)*
G04 Created by KiCad (PCBNEW (5.1.10)-1) date 2021-06-04 17:55:21*
%MOMM*%
%LPD*%
G01*
G04 APERTURE LIST*
%ADD10C,0.120000*%
%ADD11C,0.150000*%
G04 APERTURE END LIST*
D10*
%TO.C,J1*%
X118170000Y-87690000D02*
X118170000Y-85030000D01*
X97790000Y-87690000D02*
X118170000Y-87690000D01*
X97790000Y-85030000D02*
X118170000Y-85030000D01*
X97790000Y-87690000D02*
X97790000Y-85030000D01*
X96520000Y-87690000D02*
X95190000Y-87690000D01*
X95190000Y-87690000D02*
X95190000Y-86360000D01*
%TO.C,U2*%
X140700000Y-87570000D02*
G75*
G02*
X138700000Y-87570000I-1000000J0D01*
G01*
X138700000Y-87570000D02*
X137050000Y-87570000D01*
X137050000Y-87570000D02*
X137050000Y-97850000D01*
X137050000Y-97850000D02*
X142350000Y-97850000D01*
X142350000Y-97850000D02*
X142350000Y-87570000D01*
X142350000Y-87570000D02*
X140700000Y-87570000D01*
%TO.C,R3*%
X120340095Y-102349359D02*
G75*
G02*
X120437133Y-100900000I-320095J749359D01*
G01*
%TO.C,J4*%
X145990000Y-85030000D02*
X145990000Y-87690000D01*
X166370000Y-85030000D02*
X145990000Y-85030000D01*
X166370000Y-87690000D02*
X145990000Y-87690000D01*
X166370000Y-85030000D02*
X166370000Y-87690000D01*
X167640000Y-85030000D02*
X168970000Y-85030000D01*
X168970000Y-85030000D02*
X168970000Y-86360000D01*
%TO.C,J2*%
X118170000Y-102930000D02*
X118170000Y-100270000D01*
X97790000Y-102930000D02*
X118170000Y-102930000D01*
X97790000Y-100270000D02*
X118170000Y-100270000D01*
X97790000Y-102930000D02*
X97790000Y-100270000D01*
X96520000Y-102930000D02*
X95190000Y-102930000D01*
X95190000Y-102930000D02*
X95190000Y-101600000D01*
%TO.C,U1*%
X126730000Y-87570000D02*
G75*
G02*
X124730000Y-87570000I-1000000J0D01*
G01*
X124730000Y-87570000D02*
X123080000Y-87570000D01*
X123080000Y-87570000D02*
X123080000Y-97850000D01*
X123080000Y-97850000D02*
X128380000Y-97850000D01*
X128380000Y-97850000D02*
X128380000Y-87570000D01*
X128380000Y-87570000D02*
X126730000Y-87570000D01*
%TO.C,C1*%
X126379000Y-87280000D02*
X125121000Y-87280000D01*
X126379000Y-85440000D02*
X125121000Y-85440000D01*
%TO.C,C2*%
X140349000Y-85440000D02*
X139091000Y-85440000D01*
X140349000Y-87280000D02*
X139091000Y-87280000D01*
%TO.C,D1*%
X120348866Y-92926150D02*
G75*
G02*
X118480000Y-92866761I-968866J-1053850D01*
G01*
%TO.C,D2*%
X134318866Y-92926150D02*
G75*
G02*
X132450000Y-92866761I-968866J-1053850D01*
G01*
%TO.C,R1*%
X127320095Y-99809359D02*
G75*
G02*
X127417133Y-98360000I-320095J749359D01*
G01*
%TO.C,R2*%
X127320095Y-102349359D02*
G75*
G02*
X127417133Y-100900000I-320095J749359D01*
G01*
%TO.C,R4*%
X121599905Y-98310641D02*
G75*
G02*
X121502867Y-99760000I320095J-749359D01*
G01*
%TO.C,R5*%
X136210095Y-99809359D02*
G75*
G02*
X136307133Y-98360000I-320095J749359D01*
G01*
%TO.C,R6*%
X136210095Y-102349359D02*
G75*
G02*
X136307133Y-100900000I-320095J749359D01*
G01*
%TO.C,R7*%
X143189905Y-98310641D02*
G75*
G02*
X143092867Y-99760000I320095J-749359D01*
G01*
%TO.C,R8*%
X143189905Y-100850641D02*
G75*
G02*
X143092867Y-102300000I320095J-749359D01*
G01*
%TO.C,J3*%
X168970000Y-100270000D02*
X168970000Y-101600000D01*
X167640000Y-100270000D02*
X168970000Y-100270000D01*
X166370000Y-100270000D02*
X166370000Y-102930000D01*
X166370000Y-102930000D02*
X145990000Y-102930000D01*
X166370000Y-100270000D02*
X145990000Y-100270000D01*
X145990000Y-100270000D02*
X145990000Y-102930000D01*
%TO.C,J1*%
D11*
X113752380Y-84153333D02*
X114466666Y-84153333D01*
X114609523Y-84200952D01*
X114704761Y-84296190D01*
X114752380Y-84439047D01*
X114752380Y-84534285D01*
X114752380Y-83153333D02*
X114752380Y-83724761D01*
X114752380Y-83439047D02*
X113752380Y-83439047D01*
X113895238Y-83534285D01*
X113990476Y-83629523D01*
X114038095Y-83724761D01*
%TO.C,U2*%
X138938095Y-88352380D02*
X138938095Y-89161904D01*
X138985714Y-89257142D01*
X139033333Y-89304761D01*
X139128571Y-89352380D01*
X139319047Y-89352380D01*
X139414285Y-89304761D01*
X139461904Y-89257142D01*
X139509523Y-89161904D01*
X139509523Y-88352380D01*
X139938095Y-88447619D02*
X139985714Y-88400000D01*
X140080952Y-88352380D01*
X140319047Y-88352380D01*
X140414285Y-88400000D01*
X140461904Y-88447619D01*
X140509523Y-88542857D01*
X140509523Y-88638095D01*
X140461904Y-88780952D01*
X139890476Y-89352380D01*
X140509523Y-89352380D01*
%TO.C,R3*%
X124293333Y-99512380D02*
X123960000Y-99036190D01*
X123721904Y-99512380D02*
X123721904Y-98512380D01*
X124102857Y-98512380D01*
X124198095Y-98560000D01*
X124245714Y-98607619D01*
X124293333Y-98702857D01*
X124293333Y-98845714D01*
X124245714Y-98940952D01*
X124198095Y-98988571D01*
X124102857Y-99036190D01*
X123721904Y-99036190D01*
X124626666Y-98512380D02*
X125245714Y-98512380D01*
X124912380Y-98893333D01*
X125055238Y-98893333D01*
X125150476Y-98940952D01*
X125198095Y-98988571D01*
X125245714Y-99083809D01*
X125245714Y-99321904D01*
X125198095Y-99417142D01*
X125150476Y-99464761D01*
X125055238Y-99512380D01*
X124769523Y-99512380D01*
X124674285Y-99464761D01*
X124626666Y-99417142D01*
%TO.C,J4*%
X149312380Y-89233333D02*
X150026666Y-89233333D01*
X150169523Y-89280952D01*
X150264761Y-89376190D01*
X150312380Y-89519047D01*
X150312380Y-89614285D01*
X149645714Y-88328571D02*
X150312380Y-88328571D01*
X149264761Y-88566666D02*
X149979047Y-88804761D01*
X149979047Y-88185714D01*
%TO.C,J2*%
X95972380Y-99393333D02*
X96686666Y-99393333D01*
X96829523Y-99440952D01*
X96924761Y-99536190D01*
X96972380Y-99679047D01*
X96972380Y-99774285D01*
X96067619Y-98964761D02*
X96020000Y-98917142D01*
X95972380Y-98821904D01*
X95972380Y-98583809D01*
X96020000Y-98488571D01*
X96067619Y-98440952D01*
X96162857Y-98393333D01*
X96258095Y-98393333D01*
X96400952Y-98440952D01*
X96972380Y-99012380D01*
X96972380Y-98393333D01*
%TO.C,U1*%
X124968095Y-88352380D02*
X124968095Y-89161904D01*
X125015714Y-89257142D01*
X125063333Y-89304761D01*
X125158571Y-89352380D01*
X125349047Y-89352380D01*
X125444285Y-89304761D01*
X125491904Y-89257142D01*
X125539523Y-89161904D01*
X125539523Y-88352380D01*
X126539523Y-89352380D02*
X125968095Y-89352380D01*
X126253809Y-89352380D02*
X126253809Y-88352380D01*
X126158571Y-88495238D01*
X126063333Y-88590476D01*
X125968095Y-88638095D01*
%TO.C,C1*%
X125583333Y-84177142D02*
X125535714Y-84224761D01*
X125392857Y-84272380D01*
X125297619Y-84272380D01*
X125154761Y-84224761D01*
X125059523Y-84129523D01*
X125011904Y-84034285D01*
X124964285Y-83843809D01*
X124964285Y-83700952D01*
X125011904Y-83510476D01*
X125059523Y-83415238D01*
X125154761Y-83320000D01*
X125297619Y-83272380D01*
X125392857Y-83272380D01*
X125535714Y-83320000D01*
X125583333Y-83367619D01*
X126535714Y-84272380D02*
X125964285Y-84272380D01*
X126250000Y-84272380D02*
X126250000Y-83272380D01*
X126154761Y-83415238D01*
X126059523Y-83510476D01*
X125964285Y-83558095D01*
%TO.C,C2*%
X139533333Y-84177142D02*
X139485714Y-84224761D01*
X139342857Y-84272380D01*
X139247619Y-84272380D01*
X139104761Y-84224761D01*
X139009523Y-84129523D01*
X138961904Y-84034285D01*
X138914285Y-83843809D01*
X138914285Y-83700952D01*
X138961904Y-83510476D01*
X139009523Y-83415238D01*
X139104761Y-83320000D01*
X139247619Y-83272380D01*
X139342857Y-83272380D01*
X139485714Y-83320000D01*
X139533333Y-83367619D01*
X139914285Y-83367619D02*
X139961904Y-83320000D01*
X140057142Y-83272380D01*
X140295238Y-83272380D01*
X140390476Y-83320000D01*
X140438095Y-83367619D01*
X140485714Y-83462857D01*
X140485714Y-83558095D01*
X140438095Y-83700952D01*
X139866666Y-84272380D01*
X140485714Y-84272380D01*
%TO.C,D1*%
X117362380Y-93448095D02*
X116362380Y-93448095D01*
X116362380Y-93210000D01*
X116410000Y-93067142D01*
X116505238Y-92971904D01*
X116600476Y-92924285D01*
X116790952Y-92876666D01*
X116933809Y-92876666D01*
X117124285Y-92924285D01*
X117219523Y-92971904D01*
X117314761Y-93067142D01*
X117362380Y-93210000D01*
X117362380Y-93448095D01*
X117362380Y-91924285D02*
X117362380Y-92495714D01*
X117362380Y-92210000D02*
X116362380Y-92210000D01*
X116505238Y-92305238D01*
X116600476Y-92400476D01*
X116648095Y-92495714D01*
X119546666Y-89138095D02*
X119546666Y-88661904D01*
X119832380Y-89233333D02*
X118832380Y-88900000D01*
X119832380Y-88566666D01*
%TO.C,D2*%
X132532380Y-89638095D02*
X131532380Y-89638095D01*
X131532380Y-89400000D01*
X131580000Y-89257142D01*
X131675238Y-89161904D01*
X131770476Y-89114285D01*
X131960952Y-89066666D01*
X132103809Y-89066666D01*
X132294285Y-89114285D01*
X132389523Y-89161904D01*
X132484761Y-89257142D01*
X132532380Y-89400000D01*
X132532380Y-89638095D01*
X131627619Y-88685714D02*
X131580000Y-88638095D01*
X131532380Y-88542857D01*
X131532380Y-88304761D01*
X131580000Y-88209523D01*
X131627619Y-88161904D01*
X131722857Y-88114285D01*
X131818095Y-88114285D01*
X131960952Y-88161904D01*
X132532380Y-88733333D01*
X132532380Y-88114285D01*
X133516666Y-89138095D02*
X133516666Y-88661904D01*
X133802380Y-89233333D02*
X132802380Y-88900000D01*
X133802380Y-88566666D01*
%TO.C,R1*%
X130643333Y-99512380D02*
X130310000Y-99036190D01*
X130071904Y-99512380D02*
X130071904Y-98512380D01*
X130452857Y-98512380D01*
X130548095Y-98560000D01*
X130595714Y-98607619D01*
X130643333Y-98702857D01*
X130643333Y-98845714D01*
X130595714Y-98940952D01*
X130548095Y-98988571D01*
X130452857Y-99036190D01*
X130071904Y-99036190D01*
X131595714Y-99512380D02*
X131024285Y-99512380D01*
X131310000Y-99512380D02*
X131310000Y-98512380D01*
X131214761Y-98655238D01*
X131119523Y-98750476D01*
X131024285Y-98798095D01*
%TO.C,R2*%
X130643333Y-102052380D02*
X130310000Y-101576190D01*
X130071904Y-102052380D02*
X130071904Y-101052380D01*
X130452857Y-101052380D01*
X130548095Y-101100000D01*
X130595714Y-101147619D01*
X130643333Y-101242857D01*
X130643333Y-101385714D01*
X130595714Y-101480952D01*
X130548095Y-101528571D01*
X130452857Y-101576190D01*
X130071904Y-101576190D01*
X131024285Y-101147619D02*
X131071904Y-101100000D01*
X131167142Y-101052380D01*
X131405238Y-101052380D01*
X131500476Y-101100000D01*
X131548095Y-101147619D01*
X131595714Y-101242857D01*
X131595714Y-101338095D01*
X131548095Y-101480952D01*
X130976666Y-102052380D01*
X131595714Y-102052380D01*
%TO.C,R4*%
X124293333Y-101432380D02*
X123960000Y-100956190D01*
X123721904Y-101432380D02*
X123721904Y-100432380D01*
X124102857Y-100432380D01*
X124198095Y-100480000D01*
X124245714Y-100527619D01*
X124293333Y-100622857D01*
X124293333Y-100765714D01*
X124245714Y-100860952D01*
X124198095Y-100908571D01*
X124102857Y-100956190D01*
X123721904Y-100956190D01*
X125150476Y-100765714D02*
X125150476Y-101432380D01*
X124912380Y-100384761D02*
X124674285Y-101099047D01*
X125293333Y-101099047D01*
%TO.C,R5*%
X139533333Y-99512380D02*
X139200000Y-99036190D01*
X138961904Y-99512380D02*
X138961904Y-98512380D01*
X139342857Y-98512380D01*
X139438095Y-98560000D01*
X139485714Y-98607619D01*
X139533333Y-98702857D01*
X139533333Y-98845714D01*
X139485714Y-98940952D01*
X139438095Y-98988571D01*
X139342857Y-99036190D01*
X138961904Y-99036190D01*
X140438095Y-98512380D02*
X139961904Y-98512380D01*
X139914285Y-98988571D01*
X139961904Y-98940952D01*
X140057142Y-98893333D01*
X140295238Y-98893333D01*
X140390476Y-98940952D01*
X140438095Y-98988571D01*
X140485714Y-99083809D01*
X140485714Y-99321904D01*
X140438095Y-99417142D01*
X140390476Y-99464761D01*
X140295238Y-99512380D01*
X140057142Y-99512380D01*
X139961904Y-99464761D01*
X139914285Y-99417142D01*
%TO.C,R6*%
X139533333Y-102052380D02*
X139200000Y-101576190D01*
X138961904Y-102052380D02*
X138961904Y-101052380D01*
X139342857Y-101052380D01*
X139438095Y-101100000D01*
X139485714Y-101147619D01*
X139533333Y-101242857D01*
X139533333Y-101385714D01*
X139485714Y-101480952D01*
X139438095Y-101528571D01*
X139342857Y-101576190D01*
X138961904Y-101576190D01*
X140390476Y-101052380D02*
X140200000Y-101052380D01*
X140104761Y-101100000D01*
X140057142Y-101147619D01*
X139961904Y-101290476D01*
X139914285Y-101480952D01*
X139914285Y-101861904D01*
X139961904Y-101957142D01*
X140009523Y-102004761D01*
X140104761Y-102052380D01*
X140295238Y-102052380D01*
X140390476Y-102004761D01*
X140438095Y-101957142D01*
X140485714Y-101861904D01*
X140485714Y-101623809D01*
X140438095Y-101528571D01*
X140390476Y-101480952D01*
X140295238Y-101433333D01*
X140104761Y-101433333D01*
X140009523Y-101480952D01*
X139961904Y-101528571D01*
X139914285Y-101623809D01*
%TO.C,R7*%
X145883333Y-99512380D02*
X145550000Y-99036190D01*
X145311904Y-99512380D02*
X145311904Y-98512380D01*
X145692857Y-98512380D01*
X145788095Y-98560000D01*
X145835714Y-98607619D01*
X145883333Y-98702857D01*
X145883333Y-98845714D01*
X145835714Y-98940952D01*
X145788095Y-98988571D01*
X145692857Y-99036190D01*
X145311904Y-99036190D01*
X146216666Y-98512380D02*
X146883333Y-98512380D01*
X146454761Y-99512380D01*
%TO.C,R8*%
X145883333Y-102052380D02*
X145550000Y-101576190D01*
X145311904Y-102052380D02*
X145311904Y-101052380D01*
X145692857Y-101052380D01*
X145788095Y-101100000D01*
X145835714Y-101147619D01*
X145883333Y-101242857D01*
X145883333Y-101385714D01*
X145835714Y-101480952D01*
X145788095Y-101528571D01*
X145692857Y-101576190D01*
X145311904Y-101576190D01*
X146454761Y-101480952D02*
X146359523Y-101433333D01*
X146311904Y-101385714D01*
X146264285Y-101290476D01*
X146264285Y-101242857D01*
X146311904Y-101147619D01*
X146359523Y-101100000D01*
X146454761Y-101052380D01*
X146645238Y-101052380D01*
X146740476Y-101100000D01*
X146788095Y-101147619D01*
X146835714Y-101242857D01*
X146835714Y-101290476D01*
X146788095Y-101385714D01*
X146740476Y-101433333D01*
X146645238Y-101480952D01*
X146454761Y-101480952D01*
X146359523Y-101528571D01*
X146311904Y-101576190D01*
X146264285Y-101671428D01*
X146264285Y-101861904D01*
X146311904Y-101957142D01*
X146359523Y-102004761D01*
X146454761Y-102052380D01*
X146645238Y-102052380D01*
X146740476Y-102004761D01*
X146788095Y-101957142D01*
X146835714Y-101861904D01*
X146835714Y-101671428D01*
X146788095Y-101576190D01*
X146740476Y-101528571D01*
X146645238Y-101480952D01*
%TO.C,J3*%
X149312380Y-99393333D02*
X150026666Y-99393333D01*
X150169523Y-99440952D01*
X150264761Y-99536190D01*
X150312380Y-99679047D01*
X150312380Y-99774285D01*
X149312380Y-99012380D02*
X149312380Y-98393333D01*
X149693333Y-98726666D01*
X149693333Y-98583809D01*
X149740952Y-98488571D01*
X149788571Y-98440952D01*
X149883809Y-98393333D01*
X150121904Y-98393333D01*
X150217142Y-98440952D01*
X150264761Y-98488571D01*
X150312380Y-98583809D01*
X150312380Y-98869523D01*
X150264761Y-98964761D01*
X150217142Y-99012380D01*
%TD*%
M02*
