M48
; DRILL file {KiCad (5.1.10)-1} date 06/04/21 17:55:43
; FORMAT={-:-/ absolute / inch / decimal}
; #@! TF.CreationDate,2021-06-04T17:55:43+02:00
; #@! TF.GenerationSoftware,Kicad,Pcbnew,(5.1.10)-1
; #@! TF.FileFunction,Plated,1,2,PTH
FMAT,2
INCH
T1C0.0276
T2C0.0315
T3C0.0354
T4C0.0394
%
G90
G05
T1
X4.7252Y-3.9
X4.7252Y-4.0
X4.8Y-3.9
X4.8Y-4.0
X5.0Y-3.9
X5.0Y-4.0
X5.0748Y-3.9
X5.0748Y-4.0
X5.35Y-3.9
X5.35Y-4.0
X5.4248Y-3.9
X5.4248Y-4.0
X5.5752Y-3.9
X5.5752Y-4.0
X5.65Y-3.9
X5.65Y-4.0
T2
X4.8Y-3.5
X4.8Y-3.6
X4.8Y-3.7
X4.8Y-3.8
X4.9016Y-3.4
X5.0Y-3.4
X5.1Y-3.5
X5.1Y-3.6
X5.1Y-3.7
X5.1Y-3.8
X5.35Y-3.5
X5.35Y-3.6
X5.35Y-3.7
X5.35Y-3.8
X5.4516Y-3.4
X5.55Y-3.4
X5.65Y-3.5
X5.65Y-3.6
X5.65Y-3.7
X5.65Y-3.8
T3
X4.7Y-3.6
X4.7Y-3.7
X5.25Y-3.6
X5.25Y-3.7
T4
X3.8Y-3.4
X3.8Y-4.0
X3.9Y-3.4
X3.9Y-4.0
X4.0Y-3.4
X4.0Y-4.0
X4.1Y-3.4
X4.1Y-4.0
X4.2Y-3.4
X4.2Y-4.0
X4.3Y-3.4
X4.3Y-4.0
X4.4Y-3.4
X4.4Y-4.0
X4.5Y-3.4
X4.5Y-4.0
X4.6Y-3.4
X4.6Y-4.0
X5.8Y-3.4
X5.8Y-4.0
X5.9Y-3.4
X5.9Y-4.0
X6.0Y-3.4
X6.0Y-4.0
X6.1Y-3.4
X6.1Y-4.0
X6.2Y-3.4
X6.2Y-4.0
X6.3Y-3.4
X6.3Y-4.0
X6.4Y-3.4
X6.4Y-4.0
X6.5Y-3.4
X6.5Y-4.0
X6.6Y-3.4
X6.6Y-4.0
T0
M30
